<?xml version="1.0" encoding="UTF-8" standalone="no"?>
<!-- Created with Inkscape (http://www.inkscape.org/) -->

<svg
   xmlns:dc="http://purl.org/dc/elements/1.1/"
   xmlns:cc="http://creativecommons.org/ns#"
   xmlns:rdf="http://www.w3.org/1999/02/22-rdf-syntax-ns#"
   xmlns:svg="http://www.w3.org/2000/svg"
   xmlns="http://www.w3.org/2000/svg"
   xmlns:sodipodi="http://sodipodi.sourceforge.net/DTD/sodipodi-0.dtd"
   xmlns:inkscape="http://www.inkscape.org/namespaces/inkscape"
   width="64"
   height="64"
   viewBox="0 0 64.000001 64.000001"
   id="svg5513"
   version="1.1"
   inkscape:version="0.91 r13725"
   sodipodi:docname="arr.svg">
  <defs
     id="defs5515" />
  <sodipodi:namedview
     id="base"
     pagecolor="#ffffff"
     bordercolor="#666666"
     borderopacity="1.0"
     inkscape:pageopacity="0.0"
     inkscape:pageshadow="2"
     inkscape:zoom="15.839192"
     inkscape:cx="39.764101"
     inkscape:cy="22.674999"
     inkscape:document-units="px"
     inkscape:current-layer="layer1"
     showgrid="false"
     units="px"
     fit-margin-top="0"
     fit-margin-left="0"
     fit-margin-right="0"
     fit-margin-bottom="0"
     inkscape:window-width="1855"
     inkscape:window-height="1056"
     inkscape:window-x="65"
     inkscape:window-y="24"
     inkscape:window-maximized="1"
     inkscape:snap-global="true"
     inkscape:snap-bbox="true"
     inkscape:bbox-nodes="true"
     inkscape:snap-bbox-midpoints="true"
     inkscape:snap-nodes="false"
     inkscape:snap-object-midpoints="true"
     inkscape:snap-others="false"
     inkscape:snap-page="true"
     inkscape:bbox-paths="true"
     inkscape:snap-bbox-edge-midpoints="true" />
  <metadata
     id="metadata5518">
    <rdf:RDF>
      <cc:Work
         rdf:about="">
        <dc:format>image/svg+xml</dc:format>
        <dc:type
           rdf:resource="http://purl.org/dc/dcmitype/StillImage" />
        <dc:title></dc:title>
      </cc:Work>
    </rdf:RDF>
  </metadata>
  <g
     inkscape:label="Layer 1"
     inkscape:groupmode="layer"
     id="layer1"
     transform="translate(-131.77898,-111.59572)">
    <g
       id="g18238"
       transform="matrix(1.0666667,0,0,1.037037,-10.747222,-5.8553874)">
      <path
         inkscape:connector-curvature="0"
         id="rect4182-01-7-1-9-3-7-7-8-4-9-0-5-0-5-6-3-4-0-5-0-9-1-5-0-1-0-1-4-4-2-3-5-4-3-2-5-8-0-9-7-0-5"
         d="m 143.93081,140.25643 30,0 0,27 -30,0 z"
         style="display:inline;opacity:1;fill:#69788b;fill-opacity:1;stroke:none;stroke-opacity:1" />
    </g>
    <path
       style="display:inline;opacity:1;fill:#69788b;fill-opacity:1;stroke:none;stroke-width:9.1260004;stroke-miterlimit:4;stroke-dasharray:none;stroke-opacity:1"
       d="m 184.779,143.59572 a 4.0000021,4.0000021 0 0 1 -4,4 4.0000021,4.0000021 0 0 1 -4,-4 4.0000021,4.0000021 0 0 1 4,-4 4.0000021,4.0000021 0 0 1 4,4 z"
       id="path5547-9-7-2-7-0-5-8-1-0-3-8-8-2-8-6-2-7"
       inkscape:connector-curvature="0" />
    <path
       style="display:inline;opacity:1;fill:#69788b;fill-opacity:1;stroke:none;stroke-width:9.1260004;stroke-miterlimit:4;stroke-dasharray:none;stroke-opacity:1"
       d="m 184.779,153.59572 a 4.0000021,4.0000021 0 0 1 -4,4 4.0000021,4.0000021 0 0 1 -4,-4 4.0000021,4.0000021 0 0 1 4,-4 4.0000021,4.0000021 0 0 1 4,4 z"
       id="path5547-9-7-2-7-0-5-8-1-0-3-8-8-2-8-6-2-7-1"
       inkscape:connector-curvature="0" />
    <path
       style="display:inline;opacity:1;fill:#69788b;fill-opacity:1;stroke:none;stroke-width:9.1260004;stroke-miterlimit:4;stroke-dasharray:none;stroke-opacity:1"
       d="m 184.779,163.59572 a 4.0000021,4.0000021 0 0 1 -4,4 4.0000021,4.0000021 0 0 1 -4,-4 4.0000021,4.0000021 0 0 1 4,-4 4.0000021,4.0000021 0 0 1 4,4 z"
       id="path5547-9-7-2-7-0-5-8-1-0-3-8-8-2-8-6-2-7-6"
       inkscape:connector-curvature="0" />
  </g>
</svg>
